<svg xmlns="http://www.w3.org/2000/svg" xmlns:xlink="http://www.w3.org/1999/xlink" id="Layer_1" width="161.9" height="201.8" x="0" style="enable-background:new 0 0 161.9 201.8" y="0" version="1.1" viewBox="0 0 161.9 201.8" xml:space="preserve"><style type="text/css">.st0{fill:#fff}.st0,.st1,.st2,.st3{fill-rule:evenodd;clip-rule:evenodd}.st1{fill:none;stroke:#fff;stroke-miterlimit:10}.st2,.st3{clip-path:url(#Left_Arm_1_);fill:#e1e4e4}.st3{fill:#a9b3b6}.st4{clip-path:url(#Right_Arm_1_);fill:#e1e4e4}.st5,.st6{fill-rule:evenodd;clip-rule:evenodd}.st5{clip-path:url(#Right_Arm_1_);fill:#a9b3b6}.st6{fill:#f9f9fa}.st6,.st7,.st8{clip-path:url(#SVGID_2_)}.st7{fill-rule:evenodd;clip-rule:evenodd;fill:#a9b3b6}.st8{fill:#fff}.st10,.st11,.st8,.st9{fill-rule:evenodd;clip-rule:evenodd}.st9{clip-path:url(#SVGID_2_);fill:#e1e4e4}.st10{fill:#23292d}.st11{clip-path:url(#SVGID_4_);fill:#333c43}.st12{clip-path:url(#SVGID_6_)}.st12,.st13{fill:#e1e4e4}.st14{fill:#fff}</style><g><g><path id="Left_Arm_6_" d="M59.4,175.9c3.1-1.1,4.9-4.3,4-7.5L41.1,95.7c-1-3.2-4.3-4.9-7.5-4c0,0-4.1,0.2-4.7,6.7 c-0.6,6.5-6.4,54.3-5.3,62.8C24.6,169.8,35,183.4,59.4,175.9" class="st0"/><path id="Left_Arm_5_" d="M59.4,175.9c3.1-1.1,4.9-4.3,4-7.5L41.1,95.7c-1-3.2-4.3-4.9-7.5-4c0,0-4.1,0.2-4.7,6.7 c-0.6,6.5-6.4,54.3-5.3,62.8C24.6,169.8,35,183.4,59.4,175.9" class="st1"/><g><defs><path id="Left_Arm_4_" d="M59.4,175.9c3.1-1.1,4.9-4.3,4-7.5L41.1,95.7c-1-3.2-4.3-4.9-7.5-4c0,0-4.1,0.2-4.7,6.7 c-0.6,6.5-6.4,54.3-5.3,62.8C24.6,169.8,35,183.4,59.4,175.9"/></defs><clipPath id="Left_Arm_1_"><use style="overflow:visible" xlink:href="#Left_Arm_4_"/></clipPath><path d="M54.5,149.5l4.9,16.8c0.8,2.7-0.8,5.6-3.6,6.3c-5.5,1.5-14.6,3-21.4-0.8c-10.5-5.8-10.7-21.3-10.7-21.3 l-2.5,17.8l21.7,25l28.2-21.5l-11.8-27.5L54.5,149.5z" class="st2"/><path d="M25.1,134c0,0,1.2-4.3,4.2-1.8s25.2,17.2,25.2,17.2s2.8-0.9,4,3l7-12.3l-33-27L17,128L25.1,134z" class="st3"/></g></g><g><path id="Right_Arm_6_" d="M85,183c-2.5-2.2-2.9-5.9-0.8-8.5l48.7-58.4c2.1-2.5,5.9-2.9,8.5-0.8c0,0,3.7,1.8,1.8,8 c-1.9,6.2-15.1,52.5-19.4,60C119.5,190.9,104.6,199.3,85,183" class="st0"/><path id="Right_Arm_5_" d="M85,183c-2.5-2.2-2.9-5.9-0.8-8.5l48.7-58.4c2.1-2.5,5.9-2.9,8.5-0.8c0,0,3.7,1.8,1.8,8 c-1.9,6.2-15.1,52.5-19.4,60C119.5,190.9,104.6,199.3,85,183" class="st1"/><g><defs><path id="Right_Arm_4_" d="M85,183c-2.5-2.2-2.9-5.9-0.8-8.5l48.7-58.4c2.1-2.5,5.9-2.9,8.5-0.8c0,0,3.7,1.8,1.8,8 c-1.9,6.2-15.1,52.5-19.4,60C119.5,190.9,104.6,199.3,85,183"/></defs><clipPath id="Right_Arm_1_"><use style="overflow:visible" xlink:href="#Right_Arm_4_"/></clipPath><path d="M103.9,154.3l-15.2,19.2c-1.9,2.4-1.4,5.8,1,7.6c4.4,3.3,11.5,7.6,18.1,7.3c10.5-0.5,14.5-7.3,30.3-57.2 s9.8,23.3,9.8,23.3l-29.3,46.8l-47.5-10.2l10.8-39.5l24.2-1.2L103.9,154.3z" class="st4"/><path d="M140.1,133.8c0,0,0-2.8-5.2,0c-5.2,2.8-31,20.5-31,20.5s-0.9-1.8-4.8,2.4s-11.9-12.1-11.9-12.1l57.8-34 l8.3,13L140.1,133.8z" class="st5"/></g></g><g id="Body_2_"><path d="M81.3,70.2c-38.9,0-71.4,14.8-78.9,34.4c-1.7,4.6-0.1,9.7,3.8,12.7c0,0,43.5,18.8,70,49.6 c0,0,2.6,2.9,5.6,2.9s5.1-2.9,5.1-2.9c26.5-30.7,70-49.6,70-49.6c3.9-2.9,5.5-8.1,3.8-12.7c-7.5-19.6-40-34.4-78.9-34.4H81.3z" class="st0"/><g><defs><path id="SVGID_1_" d="M81.3,70.2c-38.9,0-71.4,14.8-78.9,34.4c-1.7,4.6-0.1,9.7,3.8,12.7c0,0,43.5,18.8,70,49.6 c0,0,2.6,2.9,5.6,2.9s5.1-2.9,5.1-2.9c26.5-30.7,70-49.6,70-49.6c3.9-2.9,5.5-8.1,3.8-12.7c-7.5-19.6-40-34.4-78.9-34.4H81.3z"/></defs><clipPath id="SVGID_2_"><use style="overflow:visible" xlink:href="#SVGID_1_"/></clipPath><path d="M81.8,158.7c0,0-7.2-28-7.2-57.5l7.8,0.8L81.8,158.7z" class="st6"/><path d="M81.8,141.2v17.5c0,0,7.5-37.2,8.8-57.2l-9.4-0.5L81.8,141.2z" class="st7"/><path d="M77.8,94.5c0,0,2,46.7,4,46.7s4-46.7,4-46.7H77.8z" class="st8"/><path d="M81.6,2.5c-10,0-47.5,1-55.5,60c-4.8,35.7,55.5,42,55.5,42s60.3-6.3,55.5-42C129.1,3.5,91.6,2.5,81.6,2.5" class="st7"/><path d="M6.2,116.6c0-2.5,2.7-4.2,4.9-3.1c12.1,5.9,44,22.8,65,47.3c0,0,2.6,2.9,5.6,2.9s5.1-2.9,5.1-2.9 c21.4-24.9,54.1-42,65.7-47.6c2-1,4.3,0.5,4.3,2.7v0c0,0.8-0.4,1.6-1,2.2l-35.5,32.6l-84,51.2l-30-84.1 C6.3,117.4,6.2,117,6.2,116.6L6.2,116.6z" class="st9"/></g><path d="M81.3,70.2c-38.9,0-71.4,14.8-78.9,34.4c-1.7,4.6-0.1,9.7,3.8,12.7c0,0,43.5,18.8,70,49.6 c0,0,2.6,2.9,5.6,2.9s5.1-2.9,5.1-2.9c26.5-30.7,70-49.6,70-49.6c3.9-2.9,5.5-8.1,3.8-12.7c-7.5-19.6-40-34.4-78.9-34.4H81.3z" class="st1"/></g><g id="Head_2_"><path d="M81.6,0.5c-10,0-47.5,1-55.5,60c-4.8,35.7,55.5,36,55.5,36s60.3-0.3,55.5-36C129.1,1.5,91.6,0.5,81.6,0.5" class="st0"/><path d="M81.6,0.5c-10,0-47.5,1-55.5,60c-4.8,35.7,55.5,36,55.5,36s60.3-0.3,55.5-36C129.1,1.5,91.6,0.5,81.6,0.5" class="st1"/><path d="M81.1,33.3c17.1,0,38.9,5.4,40.3,27.1c1.4,21.7-32.4,23.7-40.3,23.7h0h0h0c-7.9,0-41.6-2-40.3-23.7 C42.3,38.8,64,33.3,81.1,33.3L81.1,33.3z" class="st10"/><g><defs><path id="SVGID_3_" d="M81.1,33.3c17.1,0,38.9,5.4,40.3,27.1c1.4,21.7-32.4,23.7-40.3,23.7h0h0h0c-7.9,0-41.6-2-40.3-23.7 C42.3,38.8,64,33.3,81.1,33.3L81.1,33.3z"/></defs><clipPath id="SVGID_4_"><use style="overflow:visible" xlink:href="#SVGID_3_"/></clipPath><path d="M79.1,34.3c17.1,0,38.9,5.4,40.3,27.1c1.4,21.7-32.4,23.7-40.3,23.7h0h0h0c-7.9,0-41.6-2-40.3-23.7 C40.3,39.8,62,34.3,79.1,34.3L79.1,34.3z" class="st11"/></g><g><defs><path id="SVGID_5_" d="M81.6,0.5c-10,0-47.5,1-55.5,60c-4.8,35.7,55.5,36,55.5,36s60.3-0.3,55.5-36C129.1,1.5,91.6,0.5,81.6,0.5"/></defs><clipPath id="SVGID_6_"><use style="overflow:visible" xlink:href="#SVGID_5_"/></clipPath><path d="M74.2,0.5c0,0-31.2,12.2-38.5,46.5s4.8,38.8,20.8,46.2c16,7.3-27.8,14.8-27.8,14.8L0,61.5L36.2,10L74.2,0.5 z" class="st12"/></g></g><path id="Fill-1" d="M49.3,62.1c1.5,6,7.2,10.2,13.7,9.2c5.3-0.8,9.6-5.2,10.3-10.6c0.4-3.2-0.4-6.3-2-8.7 c-0.6-0.9-1.9-0.9-2.5,0c-3.9,5.2-12.7,8.6-18.6,8.9C49.6,60.9,49.2,61.5,49.3,62.1" class="st13"/><path id="Fill-1_1_" d="M113.7,62.1c-1.5,6-7.2,10.2-13.7,9.2c-5.3-0.8-9.6-5.2-10.3-10.6c-0.4-3.2,0.4-6.3,2-8.7 c0.6-0.9,1.9-0.9,2.5,0c3.9,5.2,12.7,8.6,18.6,8.9C113.4,60.9,113.9,61.5,113.7,62.1" class="st13"/><path id="Fill-1_3_" d="M49.3,61.1c1.5,6,7.2,10.2,13.7,9.2c5.3-0.8,9.6-5.2,10.3-10.6c0.4-3.2-0.4-6.3-2-8.7 c-0.6-0.9-1.9-0.9-2.5,0c-3.9,5.2-12.7,8.6-18.6,8.9C49.6,59.9,49.2,60.5,49.3,61.1" class="st14"/><path id="Fill-1_2_" d="M113.7,61.1c-1.5,6-7.2,10.2-13.7,9.2c-5.3-0.8-9.6-5.2-10.3-10.6c-0.4-3.2,0.4-6.3,2-8.7 c0.6-0.9,1.9-0.9,2.5,0c3.9,5.2,12.7,8.6,18.6,8.9C113.4,59.9,113.9,60.5,113.7,61.1" class="st14"/></g></svg>