<svg xmlns="http://www.w3.org/2000/svg" xmlns:xlink="http://www.w3.org/1999/xlink" width="14" height="20" version="1.1" viewBox="0 0 14 20"><title>Page 1</title><desc>Created with Sketch.</desc><g id="Symbols" fill="none" fill-rule="evenodd" stroke="none" stroke-width="1"><g id="Histo-click" fill="#4BD1C5"><g id="Page-1" transform="translate(0.000000, -0.000000)"><path id="Fill-3" d="M2.96835,11.6421667 L10.6135167,11.6421667 C10.84685,11.6421667 11.0801833,11.5032778 11.0801833,11.3643889 C11.0801833,11.2255 10.84685,11.0866111 10.6135167,11.0866111 L2.96835,11.0866111 C2.73501667,11.0866111 2.50168333,11.2255 2.50168333,11.3643889 C2.50168333,11.5032778 2.67668333,11.6421667 2.96835,11.6421667"/><path id="Fill-5" d="M10.610075,13.4753333 L2.96840833,13.4753333 C2.735075,13.4753333 2.50174167,13.6142222 2.50174167,13.7531111 C2.50174167,13.892 2.735075,14.0308889 2.96840833,14.0308889 L10.610075,14.0308889 C10.842825,14.0308889 11.0767417,13.892 11.0767417,13.7531111 C11.0767417,13.5795 10.842825,13.4753333 10.610075,13.4753333"/><path id="Fill-7" d="M10.610075,15.8087778 L2.96840833,15.8087778 C2.735075,15.8087778 2.50174167,15.9476667 2.50174167,16.0865556 C2.50174167,16.2254444 2.735075,16.3643333 2.96840833,16.3643333 L10.610075,16.3643333 C10.842825,16.3643333 11.0767417,16.2254444 11.0767417,16.0865556 C11.0767417,15.9476667 10.842825,15.8087778 10.610075,15.8087778"/><g id="Group-11" transform="translate(0.000000, 0.465500)"><polygon id="Fill-9" points="12.769 18.302 12.769 18.302 1.221 18.302 1.224 1.257 5.637 1.257 5.637 .09 .006 .09 0 19.445 13.994 19.445 13.994 9.343 12.769 9.343"/></g><path id="Fill-12" d="M8.84695,1.99805556 C8.84695,1.78138889 9.04761667,1.6375 9.27453333,1.6375 C9.50203333,1.6375 9.67995,1.78138889 9.67995,1.99805556 L9.67995,4.81027778 L11.7245333,3.94527778 C11.95145,3.87305556 12.17895,3.94527778 12.2547833,4.16138889 C12.3306167,4.37805556 12.2547833,4.59416667 12.0272833,4.66638889 L9.3772,5.74805556 L9.22553333,5.74805556 C9.15028333,5.74805556 9.07445,5.74805556 8.99861667,5.67583333 C8.92278333,5.60416667 8.84695,5.45972222 8.84695,5.3875 L8.84695,1.99805556 Z M9.45303333,9.20972222 C11.95145,9.20972222 13.9960333,7.2625 13.9960333,4.8825 C13.9960333,2.50305556 11.95145,0.555833333 9.45303333,0.555833333 C6.95403333,0.555833333 4.90945,2.50305556 4.90945,4.8825 C4.90945,7.2625 6.95403333,9.20972222 9.45303333,9.20972222 L9.45303333,9.20972222 Z"/></g></g></g></svg>