<svg xmlns="http://www.w3.org/2000/svg" xmlns:xlink="http://www.w3.org/1999/xlink" id="Layer_1" x="0" y="0" version="1.1" viewBox="0 0 44 48" xml:space="preserve" style="enable-background:new 0 0 44 48"><title>Book</title><desc>Created with Sketch.</desc><g id="Page-1"><g id="_x30_1---File-tree" transform="translate(-872.000000, -468.000000)"><g id="Welcome" transform="translate(467.000000, -57.000000)"><g id="BG"><g id="Book" transform="translate(405.336013, 525.751226)"><path id="Fill-223" d="M22.9,46.3l-22-13.2l3.2-5.4l22.5,13.5l-2.9,4.9C23.5,46.4,23.2,46.5,22.9,46.3" style="fill:#5bb27e"/><polygon id="Fill-225" points="7.4 21.1 29.9 34.6 23.2 45.8 .7 32.3" style="fill:#fff"/><path id="Fill-227" d="M2.4,30.7l22,13.2c0.3,0.2,0.7,0.1,0.9-0.2l0.6-0.9L3.2,29.2L2.4,30.7z" style="fill:#5bb27e"/><path id="Fill-229" d="M17.9,1.4c-0.8,1.4-0.4,3.1,1,3.9c1.4,0.8,3.1,0.4,3.9-1c0.8-1.3,0.4-3.1-1-3.9 C20.5-0.3,18.7,0.1,17.9,1.4" style="fill:#5bb27e"/><polygon id="Fill-231" points="17.9 1.4 22.8 4.4 5.8 32.7 .9 29.8" style="fill:#5bb27e"/><path id="Fill-233" d="M24.3,43.2l-21.7-13L20.3,0.7c0.3-0.5,0.9-0.6,1.3-0.3l20.8,12.5 c0.5,0.3,0.6,0.9,0.3,1.3L25.6,42.8C25.4,43.3,24.8,43.5,24.3,43.2" style="fill:#5dbd86"/><path id="Fill-235" d="M1.7,32.9c-0.5-0.3-0.7-1-0.4-1.6c0.3-0.5,1-0.7,1.6-0.4l0.6,0.4 c-0.1-0.5-0.4-0.9-0.8-1.1c-0.8-0.5-1.9-0.2-2.3,0.6c-0.5,0.8-0.2,1.9,0.6,2.3c0.4,0.3,0.9,0.3,1.4,0.2L1.7,32.9z" style="fill:#5bb27e"/><polygon id="Fill-237" points="1.3 31.4 .3 30.8 1.5 28.8 2.5 29.4" style="fill:#5bb27e"/><path id="Fill-239" d="M36.4,17.2L22.7,9c-0.5-0.3-0.7-1-0.4-1.6c0.3-0.5,1-0.7,1.6-0.4l13.7,8.2 c0.5,0.3,0.7,1,0.4,1.6C37.6,17.3,36.9,17.5,36.4,17.2" style="fill:#fff"/><path id="Fill-241" d="M34.4,19.3l-4.9-2.9c-0.3-0.2-0.4-0.5-0.2-0.8c0.2-0.3,0.5-0.4,0.8-0.2l4.9,2.9 c0.3,0.2,0.4,0.5,0.2,0.8C35,19.4,34.7,19.5,34.4,19.3" style="fill:#fff"/><polygon id="Fill-243" points="4.6 31.4 4.1 31.1 22.3 .8 22.8 1" style="fill:#fff"/></g></g></g></g></g></svg>