<svg xmlns="http://www.w3.org/2000/svg" xmlns:xlink="http://www.w3.org/1999/xlink" id="Calque_1" x="0" y="0" enable-background="new 0 0 208 128" version="1.1" viewBox="0 0 208 128" xml:space="preserve"><defs><filter id="Adobe_OpacityMaskFilter" width="208" height="128" x="0" y="0" filterUnits="userSpaceOnUse"><feColorMatrix type="matrix" values="1 0 0 0 0 0 1 0 0 0 0 0 1 0 0 0 0 0 1 0"/></filter></defs><mask id="mask" width="208" height="128" x="0" y="0" maskUnits="userSpaceOnUse"><rect width="208" height="128" fill="#FFF" filter="url(#Adobe_OpacityMaskFilter)"/><path d="M30,98V30h20l20,25l20-25h20v68H90V59L70,84L50,59v39H30z"/><path d="M155,98l-30-33h20V30h20v35h20L155,98z"/></mask><path fill="#CCC" d="M15,0h178c8.3,0,15,6.7,15,15v98c0,8.3-6.7,15-15,15H15c-8.3,0-15-6.7-15-15V15	C0,6.7,6.7,0,15,0z" mask="url(#mask)"/></svg>